<?xml version="1.0" encoding="iso-8859-1"?>
<!-- Generator: Adobe Illustrator 21.0.0, SVG Export Plug-In . SVG Version: 6.00 Build 0)  -->
<svg version="1.1" id="&#x5716;&#x5C64;_1" xmlns="http://www.w3.org/2000/svg" xmlns:xlink="http://www.w3.org/1999/xlink" x="0px"
	 y="0px" viewBox="0 0 185.296 173.375" style="enable-background:new 0 0 185.296 173.375;" xml:space="preserve">
<g>
	<path style="fill:#AAC646;" d="M101.922,76.558c-0.012-2.05-0.022-3.82-1.138-5.537c-2.39-3.677-7.508-3.645-8.508-3.606
		c-1.379,0.056-4.831,0.494-7.097,3.339c-2.089,2.62-1.879,5.64-1.696,7.88h-0.001c0.001,0.016,0.003,0.039,0.005,0.056
		c0.001,0.02,0.003,0.041,0.005,0.061h0.001c0.093,1.127,0.32,3.441,1.733,5.847c1.375,2.341,3.226,3.753,4.535,4.525l0.299,0.137
		c0.898,0.303,1.805,0.455,2.689,0.455c0.721,0,1.427-0.101,2.101-0.304c2.905-0.871,4.285-3.288,5.2-4.89
		c1.901-3.331,1.882-6.488,1.874-7.837L101.922,76.558z M97.287,82.946c-0.78,1.366-1.663,2.914-3.351,3.42
		c-1.021,0.305-2.011,0.144-2.706-0.069c-0.974-0.598-2.283-1.639-3.264-3.31c-1.091-1.857-1.23-3.555-1.304-4.467l-0.002-0.029
		c-0.156-1.911-0.333-4.077,1.005-5.756c1.49-1.869,4.006-2.113,4.744-2.143c0.43-0.019,4.23-0.114,5.709,2.161
		c0.582,0.896,0.613,1.874,0.625,3.824l0.001,0.126C98.75,77.888,98.766,80.355,97.287,82.946z"/>
	<path style="fill:#AAC646;" d="M63.331,16.785c-0.919,3.64,0.078,7.661,2.966,10.465c2.89,2.807,6.939,3.686,10.553,2.663
		c0.919-3.645-0.078-7.666-2.969-10.473C70.993,16.636,66.942,15.754,63.331,16.785z"/>
	<path style="fill:#AAC646;" d="M45.448,91.392c-0.425-3.73-2.778-7.14-6.469-8.745c-3.695-1.606-7.793-0.999-10.813,1.234
		c0.427,3.734,2.779,7.144,6.474,8.75C38.332,94.236,42.433,93.631,45.448,91.392z"/>
	<path style="fill:#AAC646;" d="M47.789,119.295c2.807-2.891,3.686-6.939,2.663-10.553c-3.645-0.919-7.666,0.078-10.473,2.969
		c-2.805,2.888-3.686,6.939-2.656,10.55C40.964,123.18,44.985,122.183,47.789,119.295z"/>
	<path style="fill:#AAC646;" d="M34.302,31.983c-1.924,3.223-2.122,7.361-0.159,10.876c1.964,3.518,5.59,5.521,9.346,5.578
		c1.926-3.228,2.123-7.367,0.159-10.884C41.685,34.038,38.057,32.031,34.302,31.983z"/>
	<path style="fill:#AAC646;" d="M10.564,65.551C6.698,64.428,2.707,65.549,0,68.151c0.895,3.646,3.661,6.73,7.526,7.853
		c3.869,1.125,7.857,0.003,10.57-2.594C17.199,69.76,14.433,66.676,10.564,65.551z"/>
	<path style="fill:#AAC646;" d="M111.415,19.44c-2.891,2.807-3.888,6.828-2.969,10.473c3.614,1.023,7.662,0.143,10.553-2.663
		c2.888-2.805,3.885-6.825,2.966-10.465C118.354,15.754,114.303,16.636,111.415,19.44z"/>
	<path style="fill:#AAC646;" d="M146.318,82.647c-3.692,1.605-6.044,5.015-6.469,8.745c3.015,2.239,7.116,2.844,10.808,1.239
		c3.695-1.606,6.048-5.016,6.475-8.75C154.111,81.648,150.013,81.041,146.318,82.647z"/>
	<path style="fill:#AAC646;" d="M147.972,122.261c1.031-3.612,0.149-7.662-2.656-10.55c-2.807-2.89-6.828-3.888-10.473-2.969
		c-1.023,3.614-0.144,7.662,2.663,10.553C140.312,122.183,144.333,123.18,147.972,122.261z"/>
	<path style="fill:#AAC646;" d="M141.649,37.552c-1.964,3.518-1.767,7.656,0.159,10.884c3.755-0.057,7.382-2.06,9.346-5.578
		c1.962-3.515,1.765-7.653-0.159-10.876C147.239,32.031,143.611,34.038,141.649,37.552z"/>
	<path style="fill:#AAC646;" d="M174.733,65.551c-3.869,1.125-6.635,4.209-7.532,7.859c2.713,2.598,6.701,3.719,10.57,2.594
		c3.865-1.123,6.632-4.207,7.526-7.853C182.59,65.549,178.598,64.428,174.733,65.551z"/>
	<path style="fill:#AAC646;" d="M92.649,3.891c24.004,0,46.803,10.406,62.551,28.549l2.938-2.551C141.651,10.894,117.781,0,92.649,0
		C67.517,0,43.646,10.894,27.158,29.89l2.938,2.55C45.845,14.296,68.645,3.891,92.649,3.891z"/>
	<path style="fill:#AAC646;" d="M141.105,97.998c-4.915,0.583-9.662,1.556-14.123,2.879c-0.388,0.104-0.789,0.22-1.178,0.35
		c2.235-5.991,8.771-18.196,26.083-23.832c7.302-2.38,12.385-6.564,15.107-12.435c4.58-9.881,0.913-21.304-0.059-23.968
		l-3.634,1.482c0.869,2.458,3.997,12.544,0.127,20.861c-2.249,4.832-6.54,8.309-12.754,10.332
		c-22.256,7.246-28.265,24.555-29.49,29.139c-0.004,0.001-0.007,0.003-0.011,0.004c-0.091,0.039-0.181,0.065-0.272,0.103
		c-1.518,0.558-2.84,1.09-4.046,1.648c-4.306,1.945-8.08,4.694-11.218,8.17c-1.089,1.232-1.984,2.412-2.749,3.631
		c-0.428,0.597-0.804,1.168-1.167,1.803c-0.078,0.13-0.156,0.26-0.233,0.402l-0.13-0.065c-0.908-4.215-2.737-9.714-6.355-15.472
		c3.839-5.434,9.48-10.998,17.794-15.693c7.483-4.228,13.319-10.259,17.145-17.184c0-0.001,0-0.001,0.001-0.001
		c3.529-0.16,13.501-1.164,19.605-7.308c3.153-3.176,4.777-7.217,4.832-12.017l-3.92,0.062c-0.061,3.737-1.268,6.745-3.679,9.182
		c-4.183,4.221-10.924,5.561-14.877,5.989c3.732-8.882,4.289-18.865,0.995-28.238c-1.31-3.722-3.152-7.457-5.486-11.128l-3.281,2.14
		c2.166,3.397,3.865,6.847,5.071,10.285c5.862,16.665-1.855,35.509-18.338,44.808c-8.3,4.682-14.136,10.194-18.209,15.667
		c-4.098-5.473-9.921-10.985-18.222-15.667c-16.484-9.299-24.188-28.143-18.338-44.808c1.206-3.437,2.918-6.887,5.084-10.285
		l-3.281-2.14c-2.347,3.67-4.189,7.405-5.499,11.128c-3.293,9.373-2.737,19.356,0.995,28.238c-3.954-0.429-10.691-1.77-14.872-5.989
		c-2.411-2.436-3.618-5.444-3.679-9.182l-3.92-0.062c0.055,4.8,1.679,8.84,4.832,12.017c6.101,6.141,16.068,7.147,19.6,7.308
		c0,0.001,0,0.001,0.001,0.001c3.826,6.925,9.662,12.957,17.158,17.184c8.313,4.682,13.955,10.259,17.781,15.68
		c-3.618,5.759-5.434,11.271-6.355,15.486l-0.13,0.065c-0.065-0.143-0.156-0.272-0.234-0.402c-0.363-0.635-0.739-1.206-1.167-1.803
		c-0.765-1.219-1.66-2.399-2.75-3.631c-3.139-3.476-6.913-6.225-11.218-8.17c-1.206-0.558-2.529-1.09-4.046-1.648
		c-0.091-0.039-0.182-0.065-0.272-0.103c-1.232-4.591-7.25-21.893-29.492-29.142c-6.225-2.023-10.505-5.499-12.762-10.336
		c-3.865-8.313-0.739-18.404,0.13-20.854l-3.631-1.492c-0.973,2.672-4.643,14.098-0.065,23.98
		c2.723,5.862,7.807,10.051,15.109,12.425c17.301,5.642,23.85,17.845,26.081,23.837c-0.389-0.13-0.791-0.246-1.18-0.35
		c-4.461-1.323-9.208-2.296-14.123-2.879c-23.487-2.763-26.288-13.437-26.613-16.121l-3.943-0.13c0.195,2.75,2.231,14.474,23.124,19
		c0.83,0.182,1.699,0.35,2.62,0.519c-6.498,1.452-14.149,3.995-19.518,8.378l2.555,2.983c8.988-7.275,25.861-9.014,29.297-9.299
		v-0.104c0.104,0.026,0.194,0.039,0.285,0.065l0.221-0.091l0.169,0.169c5.019,1.128,9.869,2.737,14.435,4.773
		c7.328,3.282,12.891,9.247,15.654,16.795l0.065,0.272v0.013l0.104,0.246c2.062,5.992,2.114,12.36,0.143,18.429
		c-3.294,10.245-9.014,17.262-13.241,21.335l-0.208,0.168c-0.195,0.182-0.376,0.364-0.558,0.532l-3.691,2.9
		c8.762,2.959,18.056,4.544,27.567,4.544c9.509,0,18.801-1.583,27.56-4.539l-3.696-2.905c-0.182-0.168-0.363-0.35-0.558-0.532
		l-0.208-0.168c-4.215-4.072-9.934-11.089-13.242-21.335c-1.958-6.069-1.906-12.437,0.143-18.429l0.104-0.246v-0.013l0.078-0.272
		c2.749-7.549,8.313-13.514,15.641-16.795c4.565-2.036,9.429-3.644,14.435-4.773l0.182-0.169l0.221,0.091
		c0.091-0.025,0.182-0.039,0.285-0.065c0.001,0,0.002-0.001,0.004-0.001l-0.006,0.1c3.428,0.284,20.306,2.025,29.296,9.298
		l2.552-2.975c-5.365-4.378-13.013-6.921-19.514-8.382c0.904-0.168,1.782-0.336,2.609-0.517c20.893-4.526,22.942-16.25,23.124-19
		l-3.943,0.13C167.394,84.562,164.592,95.235,141.105,97.998z M92.652,106.713c3.683,6.446,5.006,12.347,5.46,15.926
		c-0.039,0.117-0.091,0.233-0.143,0.363c0,0.013-0.013,0.013-0.013,0.013c-1.063,1.738-5.265,8.833-5.265,12.451
		c0-3.969-5.019-12.061-5.486-12.788c-0.013-0.039-0.026-0.052-0.026-0.052c0-0.013-0.013-0.026-0.013-0.039
		C87.646,119.008,88.982,113.12,92.652,106.713z"/>
	<path style="fill:#AAC646;" d="M17.665,121.836l-3.528,1.66c9.075,19.325,24.903,34.278,43.861,42.584l3.501-2.751
		C42.533,155.585,26.64,140.95,17.665,121.836z"/>
	<path style="fill:#AAC646;" d="M123.795,163.329l3.504,2.753c19.013-8.328,34.878-23.348,43.946-42.768l-3.528-1.647
		C158.751,140.88,142.821,155.569,123.795,163.329z"/>
</g>
</svg>
